<svg width="100" height="103" viewBox="0 0 100 103" fill="none" xmlns="http://www.w3.org/2000/svg">
<path d="M10.6625 71.6953C10.2493 71.6779 9.84624 71.8294 9.54163 72.1165C9.23703 72.4037 9.05573 72.8031 9.03747 73.2273V74.1417C4.74541 66.2712 2.7308 57.3064 3.23041 48.3009C3.73002 39.2954 6.72309 30.6234 11.8578 23.3042L9.59217 21.0503C3.98772 28.8668 0.691758 38.1736 0.0974728 47.8604C-0.496812 57.5472 1.63567 67.205 6.24052 75.6818L5.45925 75.1524C5.10908 74.9247 4.68517 74.8493 4.28078 74.9425C3.8764 75.0358 3.52466 75.2902 3.30295 75.6497C3.08124 76.0092 3.00772 76.4444 3.09856 76.8596C3.1894 77.2747 3.43716 77.6359 3.78734 77.8635L9.49842 81.5692C9.73028 81.7203 9.99683 81.8059 10.2712 81.8175C10.5456 81.8292 10.8181 81.7663 11.0613 81.6354C11.3045 81.5044 11.5098 81.31 11.6565 81.0717C11.8032 80.8334 11.8861 80.5595 11.8969 80.2778L12.1782 73.3556C12.1855 73.1443 12.152 72.9335 12.0797 72.7355C12.0073 72.5375 11.8976 72.3561 11.7567 72.2018C11.6159 72.0475 11.4467 71.9233 11.2589 71.8364C11.0711 71.7495 10.8684 71.7015 10.6625 71.6953ZM49.9916 3.21143C55.9305 3.20798 61.8161 4.36205 67.3358 6.61236C67.5064 5.54879 67.8275 4.51653 68.2889 3.54831C56.5286 -1.18277 43.4624 -1.18277 31.7021 3.54831C32.1609 4.51692 32.4794 5.54918 32.6474 6.61236C38.1671 4.36205 44.0527 3.20798 49.9916 3.21143ZM15.6158 22.5983C16.0352 23.014 16.5954 23.2462 17.1783 23.2462C17.7612 23.2462 18.3214 23.014 18.7408 22.5983L27.5223 13.8554C28.9127 12.4096 29.6881 10.4569 29.6786 8.42512C29.6868 7.41687 29.5013 6.41685 29.1326 5.4823C28.764 4.54776 28.2194 3.69703 27.5301 2.97882C26.1513 1.58131 24.2917 0.797696 22.3542 0.797696C20.4167 0.797696 18.5571 1.58131 17.1783 2.97882C15.8001 1.58615 13.9439 0.805603 12.0102 0.805603C10.0765 0.805603 8.22025 1.58615 6.8421 2.97882C6.14998 3.69572 5.60254 4.54585 5.23117 5.48046C4.8598 6.41507 4.67181 7.41575 4.67799 8.42512C4.67163 9.43571 4.85951 10.4377 5.23086 11.3736C5.60222 12.3095 6.14975 13.1611 6.8421 13.8794L15.6158 22.5983ZM9.02965 5.26482C9.82294 4.46486 10.8904 4.01664 12.0024 4.01664C13.1143 4.01664 14.1818 4.46486 14.9751 5.26482L16.0767 6.41986C16.3691 6.71621 16.7635 6.88238 17.1744 6.88238C17.5853 6.88238 17.9796 6.71621 18.2721 6.41986L19.3815 5.28889C20.1748 4.48892 21.2423 4.0407 22.3542 4.0407C23.4661 4.0407 24.5336 4.48892 25.3269 5.28889C26.1214 6.12812 26.5621 7.25482 26.5535 8.42512C26.5713 9.59885 26.1359 10.7321 25.3426 11.5774L17.1783 19.7027L9.02965 11.5854C8.2294 10.7402 7.78828 9.60373 7.80306 8.42512C7.78828 7.24651 8.2294 6.10999 9.02965 5.26482ZM81.2424 22.5983C81.6618 23.014 82.222 23.2462 82.8049 23.2462C83.3878 23.2462 83.948 23.014 84.3674 22.5983L93.1489 13.8554C94.5393 12.4096 95.3148 10.4569 95.3052 8.42512C95.3134 7.41687 95.1279 6.41685 94.7593 5.4823C94.3906 4.54776 93.846 3.69703 93.1567 2.97882C91.7786 1.58615 89.9224 0.805603 87.9886 0.805603C86.0549 0.805603 84.1987 1.58615 82.8205 2.97882C81.4424 1.58615 79.5862 0.805603 77.6524 0.805603C75.7187 0.805603 73.8625 1.58615 72.4843 2.97882C71.7894 3.6944 71.2391 4.54394 70.865 5.47861C70.4909 6.41328 70.3005 7.41464 70.3046 8.42512C70.2972 9.43706 70.4846 10.4405 70.856 11.3779C71.2273 12.3153 71.7754 13.1681 72.4687 13.8875L81.2424 22.5983ZM74.6563 5.26482C75.4495 4.46486 76.517 4.01664 77.629 4.01664C78.7409 4.01664 79.8084 4.46486 80.6017 5.26482L81.7033 6.41986C81.9957 6.71621 82.3901 6.88238 82.801 6.88238C83.2119 6.88238 83.6063 6.71621 83.8987 6.41986L85.0081 5.28889C85.8014 4.48892 86.8689 4.0407 87.9808 4.0407C89.0928 4.0407 90.1603 4.48892 90.9535 5.28889C91.7481 6.12812 92.1887 7.25482 92.1801 8.42512C92.1979 9.59885 91.7625 10.7321 90.9692 11.5774L82.8049 19.7027L74.6563 11.5854C73.856 10.7402 73.4149 9.60373 73.4297 8.42512C73.4149 7.24651 73.856 6.10999 74.6563 5.26482ZM94.7739 71.0135C92.7038 70.7119 90.6146 70.5697 88.5238 70.5884C87.7425 70.5884 86.9613 70.5884 86.055 70.6525C76.0704 71.1819 57.9293 75.3128 54.2026 97.86C54.0854 98.5659 53.9761 99.2878 53.8901 100.026C53.8945 100.052 53.8945 100.079 53.8901 100.106C53.854 100.5 53.9561 100.894 54.1782 101.218C54.4002 101.541 54.7275 101.773 55.1011 101.871C57.7721 102.429 60.4928 102.698 63.2185 102.673C73.6562 102.673 91.7973 98.7985 96.0318 72.8583C96.0653 72.6503 96.0585 72.4375 96.0119 72.2321C95.9652 72.0268 95.8795 71.8329 95.7598 71.6615C95.6401 71.4902 95.4886 71.3447 95.3141 71.2335C95.1396 71.1224 94.9454 71.0476 94.7427 71.0135H94.7739ZM81.7736 93.7612C79.4171 95.5765 76.7745 96.9629 73.9609 97.86C70.4768 98.9606 66.848 99.5017 63.2029 99.4642C61.8356 99.4642 60.6012 99.392 59.5465 99.2958L61.5466 97.86L71.8671 90.4004C72.2059 90.1547 72.4357 89.7809 72.5061 89.3612C72.5764 88.9415 72.4815 88.5104 72.2421 88.1625C72.0028 87.8147 71.6387 87.5788 71.2299 87.5066C70.8212 87.4343 70.4012 87.5318 70.0624 87.7775L57.6168 96.7691C61.3669 78.7939 75.4375 74.5428 85.5081 73.9011C86.5706 73.8289 87.5941 73.7968 88.555 73.7968C90.2582 73.7968 91.6801 73.8931 92.688 73.9893C90.7817 83.7429 86.7113 89.9272 81.7736 93.7612Z" fill="url(#paint0_linear)"/>
<path d="M76.5547 87.4326C77.4177 87.4326 78.1173 86.7144 78.1173 85.8284C78.1173 84.9424 77.4177 84.2242 76.5547 84.2242C75.6918 84.2242 74.9922 84.9424 74.9922 85.8284C74.9922 86.7144 75.6918 87.4326 76.5547 87.4326Z" fill="url(#paint1_linear)"/>
<path d="M90.4301 21.0503L88.1644 23.2641C92.6137 29.5962 95.4679 36.9601 96.4725 44.6995C97.4772 52.4389 96.6011 60.3132 93.9224 67.6206C94.7036 67.7088 95.1724 67.781 95.2896 67.8051C95.8845 67.9061 96.4548 68.1239 96.9693 68.4468C99.7798 60.6008 100.654 52.1625 99.5145 43.8851C98.3749 35.6077 95.2565 27.7489 90.4379 21.0102L90.4301 21.0503ZM49.9916 45.0172C50.6193 43.6574 51.5327 42.4573 52.6661 41.5031C53.7995 40.5489 55.1247 39.8644 56.5464 39.4987C56.0542 35.0791 53.3042 31.6862 49.9916 31.6862C46.679 31.6862 43.9289 35.0791 43.4367 39.4987C44.8585 39.8644 46.1837 40.5489 47.3171 41.5031C48.4505 42.4573 49.3638 43.6574 49.9916 45.0172ZM59.8434 39.4987C61.2652 39.8644 62.5904 40.5489 63.7237 41.5031C64.8571 42.4573 65.7705 43.6574 66.3983 45.0172C67.026 43.6574 67.9394 42.4573 69.0728 41.5031C70.2061 40.5489 71.5313 39.8644 72.9531 39.4987C72.4609 35.0791 69.7108 31.6862 66.3983 31.6862C63.0857 31.6862 60.3356 35.0791 59.8434 39.4987ZM33.5849 45.0172C34.2127 43.6574 35.1261 42.4573 36.2594 41.5031C37.3928 40.5489 38.718 39.8644 40.1398 39.4987C39.6476 35.0791 36.8975 31.6862 33.5849 31.6862C30.2724 31.6862 27.5223 35.0791 27.0301 39.4987C28.4519 39.8644 29.7771 40.5489 30.9104 41.5031C32.0438 42.4573 32.9572 43.6574 33.5849 45.0172ZM64.7498 28.6703C64.2576 24.2507 61.5075 20.8578 58.1949 20.8578C54.8823 20.8578 52.1323 24.2507 51.6401 28.6703C53.0618 29.036 54.387 29.7205 55.5204 30.6747C56.6538 31.6289 57.5672 32.829 58.1949 34.1888C58.8227 32.829 59.7361 31.6289 60.8694 30.6747C62.0028 29.7205 63.328 29.036 64.7498 28.6703ZM41.7883 20.8578C38.4757 20.8578 35.7256 24.2507 35.2334 28.6703C36.6552 29.036 37.9804 29.7205 39.1138 30.6747C40.2471 31.6289 41.1605 32.829 41.7883 34.1888C42.416 32.829 43.3294 31.6289 44.4628 30.6747C45.5961 29.7205 46.9213 29.036 48.3431 28.6703C47.8509 24.2507 45.1009 20.8578 41.7883 20.8578Z" fill="url(#paint2_linear)"/>
<path d="M86.6565 67.38L87.094 64.9736H87.4925C88.7357 64.9736 89.928 64.4666 90.8071 63.564C91.6862 62.6615 92.1801 61.4374 92.1801 60.161V58.5568C92.1801 57.2804 91.6862 56.0563 90.8071 55.1537C89.928 54.2512 88.7357 53.7441 87.4925 53.7441H81.0783C81.1849 53.0813 81.2398 52.4107 81.2423 51.7389C81.2423 46.6535 78.2657 42.5146 74.6016 42.5146C70.9374 42.5146 67.9608 46.6535 67.9608 51.7389C67.9633 52.4107 68.0182 53.0813 68.1248 53.7441H64.6716C64.7783 53.0813 64.8332 52.4107 64.8357 51.7389C64.8357 46.6535 61.8591 42.5146 58.1949 42.5146C54.5308 42.5146 51.5541 46.6535 51.5541 51.7389C51.5566 52.4107 51.6115 53.0813 51.7182 53.7441H48.265C48.3716 53.0813 48.4265 52.4107 48.429 51.7389C48.429 46.6535 45.4524 42.5146 41.7882 42.5146C38.1241 42.5146 35.1475 46.6535 35.1475 51.7389C35.15 52.4107 35.2049 53.0813 35.3115 53.7441H31.8583C31.965 53.0813 32.0199 52.4107 32.0224 51.7389C32.0224 46.6535 29.0457 42.5146 25.3816 42.5146C21.7174 42.5146 18.7408 46.6535 18.7408 51.7389C18.7433 52.4107 18.7982 53.0813 18.9049 53.7441H12.4907C11.2474 53.7441 10.0551 54.2512 9.17601 55.1537C8.29691 56.0563 7.80304 57.2804 7.80304 58.5568V60.161C7.80304 61.4374 8.29691 62.6615 9.17601 63.564C10.0551 64.4666 11.2474 64.9736 12.4907 64.9736H12.8891L17.5767 91.6276C18.0533 95.1248 20.7487 97.86 23.7019 97.86H51.0463C55.0542 72.0242 75.8985 67.8211 86.6565 67.38ZM12.4907 61.7652C12.0762 61.7652 11.6788 61.5962 11.3858 61.2953C11.0927 60.9945 10.9281 60.5865 10.9281 60.161V58.5568C10.9281 58.1313 11.0927 57.7233 11.3858 57.4224C11.6788 57.1216 12.0762 56.9526 12.4907 56.9526H87.4925C87.9069 56.9526 88.3043 57.1216 88.5974 57.4224C88.8904 57.7233 89.055 58.1313 89.055 58.5568V60.161C89.055 60.5865 88.8904 60.9945 88.5974 61.2953C88.3043 61.5962 87.9069 61.7652 87.4925 61.7652H12.4907ZM55.4605 80.2137H51.5541V84.2242C51.5541 84.6497 51.3895 85.0577 51.0965 85.3585C50.8034 85.6594 50.406 85.8284 49.9916 85.8284C49.5772 85.8284 49.1797 85.6594 48.8867 85.3585C48.5937 85.0577 48.429 84.6497 48.429 84.2242V80.2137H44.5227C44.1083 80.2137 43.7108 80.0446 43.4178 79.7438C43.1248 79.443 42.9602 79.0349 42.9602 78.6094C42.9602 78.184 43.1248 77.7759 43.4178 77.4751C43.7108 77.1742 44.1083 77.0052 44.5227 77.0052H48.429V72.9947C48.429 72.5692 48.5937 72.1612 48.8867 71.8604C49.1797 71.5595 49.5772 71.3905 49.9916 71.3905C50.406 71.3905 50.8034 71.5595 51.0965 71.8604C51.3895 72.1612 51.5541 72.5692 51.5541 72.9947V77.0052H55.4605C55.8749 77.0052 56.2723 77.1742 56.5653 77.4751C56.8584 77.7759 57.023 78.184 57.023 78.6094C57.023 79.0349 56.8584 79.443 56.5653 79.7438C56.2723 80.0446 55.8749 80.2137 55.4605 80.2137Z" fill="url(#paint3_linear)"/>
<defs>
<linearGradient id="paint0_linear" x1="0.000333238" y1="0.00446089" x2="87.8584" y2="39.909" gradientUnits="userSpaceOnUse">
<stop stop-color="#00EEE1"/>
<stop offset="1" stop-color="#FFD233"/>
</linearGradient>
<linearGradient id="paint1_linear" x1="33.2961" y1="108.876" x2="36.1546" y2="110.174" gradientUnits="userSpaceOnUse">
<stop stop-color="#00EEE1"/>
<stop offset="1" stop-color="#FFD233"/>
</linearGradient>
<linearGradient id="paint2_linear" x1="15.912" y1="30.6361" x2="82.6566" y2="60.9511" gradientUnits="userSpaceOnUse">
<stop stop-color="#00EEE1"/>
<stop offset="1" stop-color="#FFD233"/>
</linearGradient>
<linearGradient id="paint3_linear" x1="-10.4284" y1="41.9215" x2="66.7501" y2="76.9755" gradientUnits="userSpaceOnUse">
<stop stop-color="#00EEE1"/>
<stop offset="1" stop-color="#FFD233"/>
</linearGradient>
</defs>
</svg>
